<?xml version="1.0" encoding="utf-8"?>
<!-- Generator: Adobe Illustrator 16.0.0, SVG Export Plug-In . SVG Version: 6.00 Build 0)  -->
<!DOCTYPE svg PUBLIC "-//W3C//DTD SVG 1.1//EN" "http://www.w3.org/Graphics/SVG/1.1/DTD/svg11.dtd">
<svg version="1.1" id="Layer_1" xmlns="http://www.w3.org/2000/svg" xmlns:xlink="http://www.w3.org/1999/xlink" x="0px" y="0px"
	 width="2000px" height="500px" viewBox="0 0 2000 500" enable-background="new 0 0 2000 500" xml:space="preserve">
<path fill-rule="evenodd" clip-rule="evenodd" fill="#A5CD39" d="M662.903,441.655c-3.828,5.679,1.15,2.481-4.923,4.731
	c-4.961-3.177-13.855-21.738-17.322-27.361l-19.686-29.715C464.871,490.81,260.822,552.812,11,256.404
	c69.673,98.311,365.172,250.214,567.716,76.659c6.824-5.896-26.004-49.949-25.849-67.082l187.341,0.188
	C739.831,273.175,673.368,424.445,662.903,441.655"/>
<path fill-rule="evenodd" clip-rule="evenodd" fill="#A5CD39" d="M271.269,44.117c25.277,0,45.739,32.026,45.739,71.607
	c0,39.593-20.461,71.607-45.739,71.607c-25.224,0-45.737-32.015-45.737-71.607C225.532,76.143,246.045,44.117,271.269,44.117"/>
<path fill-rule="evenodd" clip-rule="evenodd" fill="#A5CD39" d="M479.944,44.117c25.303,0,45.747,32.026,45.747,71.607
	c0,39.593-20.444,71.607-45.747,71.607c-25.216,0-45.733-32.015-45.733-71.607C434.211,76.143,454.729,44.117,479.944,44.117"/>
<polygon fill="none" stroke="#574186" stroke-width="1.2" stroke-miterlimit="22.926" points="1046.045,15.844 966.496,199.614 
	887.255,15.844 867.315,15.844 867.315,223.547 886.348,223.547 886.348,62.037 956.167,223.725 976.973,223.725 1046.872,62.037 
	1046.872,223.547 1065.743,223.547 1065.743,15.844 "/>
<polygon fill="none" stroke="#574186" stroke-width="1.2" stroke-miterlimit="22.926" points="1090.474,15.844 1090.474,223.725 
	1196.487,223.725 1196.487,204.566 1109.505,204.566 1109.505,129.038 1178.296,129.038 1178.296,109.885 1109.505,109.885 
	1109.505,35.011 1196.487,35.011 1196.487,15.844 "/>
<polygon fill="none" stroke="#574186" stroke-width="1.2" stroke-miterlimit="22.926" points="1213.304,15.844 1213.304,223.725 
	1328.874,223.725 1328.874,204.566 1232.372,204.566 1232.372,15.844 "/>
<polygon fill="none" stroke="#574186" stroke-width="1.2" stroke-miterlimit="22.926" points="1468.813,15.844 1468.813,109.885 
	1363.386,109.885 1363.386,15.844 1344.345,15.844 1344.345,223.725 1363.386,223.725 1363.386,129.038 1468.813,129.038 
	1468.813,223.725 1487.925,223.725 1487.925,15.844 "/>
<path fill="none" stroke="#574186" stroke-width="1.2" stroke-miterlimit="22.926" d="M1607.407,225.847
	c-29.321,0-54.256-10.399-74.968-31.111c-20.627-20.708-31.025-45.642-31.025-74.883c0-29.193,10.398-54.171,31.025-74.876
	C1553.151,24.348,1578.086,14,1607.407,14c29.158,0,54.103,10.348,74.866,30.976c20.563,20.705,30.899,45.683,30.899,74.876
	c0,29.242-10.336,54.175-30.899,74.883C1661.51,215.448,1636.565,225.847,1607.407,225.847z M1607.407,33.076
	c-23.973,0-44.396,8.507-61.462,25.487c-16.894,17.008-25.421,37.431-25.421,61.289c0,23.989,8.527,44.421,25.421,61.391
	c17.066,16.961,37.489,25.522,61.462,25.522c23.754,0,44.24-8.561,61.295-25.522c16.895-16.969,25.422-37.402,25.422-61.391
	c0-23.858-8.527-44.281-25.422-61.289C1651.647,41.583,1631.161,33.076,1607.407,33.076z"/>
<path fill="none" stroke="#574186" stroke-width="1.2" stroke-miterlimit="22.926" d="M1819.96,127.897
	c12.24-3.317,22.249-9.958,30.02-20.041c8.087-10.277,12.113-21.979,12.113-34.97c0-15.765-5.57-29.173-16.686-40.261
	c-11.187-11.173-24.485-16.782-40.28-16.782h-74.722v207.703h19.27V129.78h49.633l48.821,93.945h21.383L1819.96,127.897z
	 M1749.675,110.689V35.011h55.452c10.424,0,19.405,3.677,26.763,11.117c7.479,7.456,11.12,16.33,11.12,26.759
	c0,10.415-3.642,19.316-11.12,26.749c-7.357,7.325-16.339,11.054-26.763,11.054H1749.675z"/>
<polygon fill="#574186" points="1046.045,15.844 966.496,199.614 887.255,15.844 867.315,15.844 867.315,223.547 886.348,223.547 
	886.348,62.037 956.167,223.725 976.973,223.725 1046.872,62.037 1046.872,223.547 1065.743,223.547 1065.743,15.844 "/>
<polygon fill="#574186" points="1090.474,15.844 1090.474,223.725 1196.487,223.725 1196.487,204.566 1109.505,204.566 
	1109.505,129.038 1178.296,129.038 1178.296,109.885 1109.505,109.885 1109.505,35.011 1196.487,35.011 1196.487,15.844 "/>
<polygon fill="#574186" points="1213.304,15.844 1213.304,223.725 1328.874,223.725 1328.874,204.566 1232.372,204.566 
	1232.372,15.844 "/>
<polygon fill="#574186" points="1468.813,15.844 1468.813,109.885 1363.386,109.885 1363.386,15.844 1344.345,15.844 
	1344.345,223.725 1363.386,223.725 1363.386,129.038 1468.813,129.038 1468.813,223.725 1487.925,223.725 1487.925,15.844 "/>
<path fill="#574186" d="M1607.407,225.847c-29.321,0-54.256-10.399-74.968-31.111c-20.627-20.708-31.025-45.642-31.025-74.883
	c0-29.193,10.398-54.171,31.025-74.876C1553.151,24.348,1578.086,14,1607.407,14c29.158,0,54.103,10.348,74.866,30.976
	c20.563,20.705,30.899,45.683,30.899,74.876c0,29.242-10.336,54.175-30.899,74.883
	C1661.51,215.448,1636.565,225.847,1607.407,225.847 M1607.407,33.076c-23.973,0-44.396,8.507-61.462,25.487
	c-16.894,17.008-25.421,37.431-25.421,61.289c0,23.989,8.527,44.421,25.421,61.391c17.066,16.961,37.489,25.522,61.462,25.522
	c23.754,0,44.24-8.561,61.295-25.522c16.895-16.969,25.422-37.402,25.422-61.391c0-23.858-8.527-44.281-25.422-61.289
	C1651.647,41.583,1631.161,33.076,1607.407,33.076"/>
<path fill="#574186" d="M1819.96,127.897c12.24-3.317,22.249-9.958,30.02-20.041c8.087-10.277,12.113-21.979,12.113-34.97
	c0-15.765-5.57-29.173-16.686-40.261c-11.187-11.173-24.485-16.782-40.28-16.782h-74.722v207.703h19.27V129.78h49.633l48.821,93.945
	h21.383L1819.96,127.897z M1749.675,110.689V35.011h55.452c10.424,0,19.405,3.677,26.763,11.117
	c7.479,7.456,11.12,16.33,11.12,26.759c0,10.415-3.642,19.316-11.12,26.749c-7.357,7.325-16.339,11.054-26.763,11.054H1749.675z"/>
<path fill="none" stroke="#7DC142" stroke-width="1.134" stroke-miterlimit="22.926" d="M815.982,443.57h-16.788v-182.6h65.748
	c13.781,0,25.533,4.897,35.457,14.746c9.709,9.737,14.573,21.552,14.573,35.508c0,13.693-4.864,25.49-14.573,35.34
	c-9.924,9.662-21.676,14.617-35.457,14.617h-48.96V443.57z M815.982,344.403h48.96c9.216,0,17.089-3.274,23.53-9.915
	c6.499-6.382,9.689-14.163,9.689-23.264c0-9.334-3.19-17.146-9.689-23.624c-6.441-6.631-14.314-9.833-23.53-9.833h-48.96V344.403z"
	/>
<path fill="none" stroke="#7DC142" stroke-width="1.134" stroke-miterlimit="22.926" d="M988.323,283.435v97.628h-61.871
	L988.323,283.435z M982.645,260.971l-115.508,182.6h19.865l28.867-45.727h72.455v45.727h16.594v-182.6H982.645z"/>
<path fill="none" stroke="#7DC142" stroke-width="1.134" stroke-miterlimit="22.926" d="M1106.416,359.317
	c10.856-2.816,19.747-8.639,26.595-17.377c6.953-9.076,10.51-19.377,10.51-30.813c0-13.864-4.959-25.673-14.622-35.41
	c-9.831-9.849-21.556-14.746-35.34-14.746h-65.692v182.502h16.86v-82.385h43.604l42.917,82.482h18.755L1106.416,359.317z
	 M1044.727,344.308v-66.54h48.832c9.102,0,16.893,3.202,23.377,9.833c6.61,6.479,9.804,14.282,9.804,23.526
	c0,9.1-3.193,16.889-9.804,23.361c-6.484,6.626-14.275,9.819-23.377,9.819H1044.727z"/>
<path fill="none" stroke="#7DC142" stroke-width="1.134" stroke-miterlimit="22.926" d="M1272.108,283.435v97.628h-61.979
	L1272.108,283.435z M1266.315,260.971l-115.477,182.6h19.866l28.923-45.727h72.48v45.727h16.511v-182.6H1266.315z"/>
<path fill="#A5CD39" d="M815.982,443.57h-16.788v-182.6h65.748c13.781,0,25.533,4.897,35.457,14.746
	c9.709,9.737,14.573,21.552,14.573,35.508c0,13.693-4.864,25.49-14.573,35.34c-9.924,9.662-21.676,14.617-35.457,14.617h-48.96
	V443.57z M815.982,344.403h48.96c9.216,0,17.089-3.274,23.53-9.915c6.499-6.382,9.689-14.163,9.689-23.264
	c0-9.334-3.19-17.146-9.689-23.624c-6.441-6.631-14.314-9.833-23.53-9.833h-48.96V344.403z"/>
<path fill="#A5CD39" d="M988.323,283.435v97.628h-61.871L988.323,283.435z M982.645,260.971l-115.508,182.6h19.865l28.867-45.727
	h72.455v45.727h16.594v-182.6H982.645z"/>
<path fill="#A5CD39" d="M1106.416,359.317c10.856-2.816,19.747-8.639,26.595-17.377c6.953-9.076,10.51-19.377,10.51-30.813
	c0-13.864-4.959-25.673-14.622-35.41c-9.831-9.849-21.556-14.746-35.34-14.746h-65.692v182.502h16.86v-82.385h43.604l42.917,82.482
	h18.755L1106.416,359.317z M1044.727,344.308v-66.54h48.832c9.102,0,16.893,3.202,23.377,9.833
	c6.61,6.479,9.804,14.282,9.804,23.526c0,9.1-3.193,16.889-9.804,23.361c-6.484,6.626-14.275,9.819-23.377,9.819H1044.727z"/>
<path fill="#A5CD39" d="M1272.108,283.435v97.628h-61.979L1272.108,283.435z M1266.315,260.971l-115.477,182.6h19.866l28.923-45.727
	h72.48v45.727h16.511v-182.6H1266.315z"/>
<polygon fill="none" stroke="#574186" stroke-width="1.2" stroke-miterlimit="22.926" points="1476.704,260.782 1357.591,449.392 
	1357.591,260.782 1337.91,260.782 1337.91,475.727 1364.214,475.727 1500.196,260.782 "/>
<path fill="none" stroke="#574186" stroke-width="1.2" stroke-miterlimit="22.926" d="M1588.593,478
	c-30.113,0-56.105-10.8-77.258-32.181c-21.567-21.357-32.388-47.146-32.388-77.417c0-30.099,10.82-56.129,32.388-77.508
	c21.152-21.368,47.145-32.029,77.258-32.029c30.274,0,56.136,10.661,77.656,32.029c21.186,21.379,31.918,47.409,31.918,77.508
	c0,30.271-10.732,56.06-31.918,77.417C1644.729,467.2,1618.867,478,1588.593,478z M1588.593,278.618
	c-24.654,0-45.84,8.718-63.453,26.332c-17.473,17.615-26.341,38.794-26.341,63.452c0,24.831,8.868,46.009,26.341,63.459
	c17.613,17.606,38.799,26.333,63.453,26.333c24.817,0,46.003-8.727,63.452-26.333c17.613-17.45,26.341-38.628,26.341-63.459
	c0-24.658-8.728-45.837-26.341-63.452C1634.596,287.336,1613.41,278.618,1588.593,278.618z"/>
<path fill="none" stroke="#574186" stroke-width="1.2" stroke-miterlimit="22.926" d="M1815.84,458.095
	c-24.838,0-46.04-8.725-63.563-26.334c-17.498-17.614-26.377-38.627-26.377-63.459c0-24.822,8.879-45.836,26.377-63.453
	c17.523-17.613,38.726-26.391,63.563-26.391c17.479,0,33.782,4.76,48.684,14.584v-22.773c-15.385-7.706-31.503-11.552-48.684-11.552
	c-30.288,0-56.113,10.788-77.434,32.178c-21.577,21.29-32.198,47.144-32.198,77.407c0,30.271,10.621,56.105,32.198,77.417
	c21.32,21.384,47.146,32.203,77.434,32.203c17.181,0,33.299-3.926,48.684-11.663V443.57
	C1849.622,453.388,1833.319,458.095,1815.84,458.095z"/>
<path fill="none" stroke="#574186" stroke-width="1.2" stroke-miterlimit="22.926" d="M1920.561,218.12l-19.803,33.828h22.964
	l12.814-22.205l13.059,22.205h22.963l-19.819-33.828H1920.561z M1881.736,260.782v214.944h109.708v-19.617h-89.899v-78.241h71.129
	v-19.857h-71.129v-77.51h89.899v-19.719H1881.736z"/>
<polygon fill="#574186" points="1476.704,260.782 1357.591,449.392 1357.591,260.782 1337.91,260.782 1337.91,475.727 
	1364.214,475.727 1500.196,260.782 "/>
<path fill="#574186" d="M1588.593,478c-30.113,0-56.105-10.8-77.258-32.181c-21.567-21.357-32.388-47.146-32.388-77.417
	c0-30.099,10.82-56.129,32.388-77.508c21.152-21.368,47.145-32.029,77.258-32.029c30.274,0,56.136,10.661,77.656,32.029
	c21.186,21.379,31.918,47.409,31.918,77.508c0,30.271-10.732,56.06-31.918,77.417C1644.729,467.2,1618.867,478,1588.593,478
	 M1588.593,278.618c-24.654,0-45.84,8.718-63.453,26.332c-17.473,17.615-26.341,38.794-26.341,63.452
	c0,24.831,8.868,46.009,26.341,63.459c17.613,17.606,38.799,26.333,63.453,26.333c24.817,0,46.003-8.727,63.452-26.333
	c17.613-17.45,26.341-38.628,26.341-63.459c0-24.658-8.728-45.837-26.341-63.452C1634.596,287.336,1613.41,278.618,1588.593,278.618
	"/>
<path fill="#574186" d="M1815.84,458.095c-24.838,0-46.04-8.725-63.563-26.334c-17.498-17.614-26.377-38.627-26.377-63.459
	c0-24.822,8.879-45.836,26.377-63.453c17.523-17.613,38.726-26.391,63.563-26.391c17.479,0,33.782,4.76,48.684,14.584v-22.773
	c-15.385-7.706-31.503-11.552-48.684-11.552c-30.288,0-56.113,10.788-77.434,32.178c-21.577,21.29-32.198,47.144-32.198,77.407
	c0,30.271,10.621,56.105,32.198,77.417c21.32,21.384,47.146,32.203,77.434,32.203c17.181,0,33.299-3.926,48.684-11.663V443.57
	C1849.622,453.388,1833.319,458.095,1815.84,458.095"/>
<path fill="#574186" d="M1920.561,218.12l-19.803,33.828h22.964l12.814-22.205l13.059,22.205h22.963l-19.819-33.828H1920.561z
	 M1881.736,260.782v214.944h109.708v-19.617h-89.899v-78.241h71.129v-19.857h-71.129v-77.51h89.899v-19.719H1881.736z"/>
</svg>
